<?xml version="1.0" encoding="UTF-8" standalone="no"?>
<svg xmlns:svg="http://www.w3.org/2000/svg" xmlns="http://www.w3.org/2000/svg" version="1.1" viewBox="0 0 26.458333 26.458334" height="100" width="100">
  <g transform="translate(85.717164,-51.287153)" class="jp-icon-warn0 jp-icon-selectable" fill="#f08705">
    <path d="m -84.299753,54.141646 v 15.934887 h 5.306604 v 5.306604 h 18.480891 V 54.141646 Z m 18.711989,2.032434 h 3.20004 l -1.989844,11.741114 c -0.116364,0.799033 -0.364583,1.536007 -0.744705,2.210918 -0.380122,0.667153 -0.857244,1.245098 -1.431306,1.733827 -0.566304,0.480971 -1.210173,0.853354 -1.93163,1.117112 -0.721456,0.263759 -1.489453,0.38785 -2.304,0.372334 -0.80679,-0.0078 -1.520498,-0.135726 -2.141105,-0.383969 -0.620608,-0.248243 -1.140349,-0.59736 -1.559259,-1.0473 -0.411153,-0.457698 -0.717576,-1.004584 -0.919274,-1.640707 -0.201697,-0.64388 -0.290924,-1.361465 -0.267651,-2.15274 l 3.200003,0.01163 c -0.01551,0.364607 -4e-6,0.705931 0.04654,1.023992 0.04654,0.310304 0.143528,0.581827 0.290922,0.814555 0.147395,0.22497 0.349079,0.407265 0.60508,0.546902 0.263758,0.131879 0.601241,0.201717 1.012393,0.209475 0.403395,0.0078 0.771864,-0.06208 1.105441,-0.209475 0.333576,-0.155152 0.624488,-0.360714 0.872731,-0.616715 0.248243,-0.263758 0.453806,-0.566303 0.616715,-0.907638 0.16291,-0.341334 0.275404,-0.698206 0.337465,-1.07057 z m -18.711989,14.659415 4.549642,4.549642 v -4.549642 z" />
  </g>
</svg>
