<?xml version="1.0" encoding="UTF-8" standalone="no"?>
<svg xmlns="http://www.w3.org/2000/svg" viewBox="0 0 159 159" version="1.1">
  <g class="jp-icon-brand2 jp-icon-selectable" fill="#0f80cc">
    <path d="M121.632 7.454H22.124C15.458 7.454 10 12.91 10 19.58v109.736c0 6.669 5.457 12.125 12.126 12.125h65.537c-.744-32.609 10.392-95.893 33.969-133.987z"/>
  </g>
  <g class="jp-icon-brand0 jp-icon-selectable" fill="#003b57">
    <path d="M144.841 3.862c-6.815-6.077-15.066-3.636-23.21 3.592a57.556 57.556 0 0 0-3.615 3.537c-13.93 14.779-26.862 42.154-30.88 63.06 1.566 3.174 2.788 7.224 3.593 10.318.206.793.393 1.538.541 2.172.354 1.5.544 2.473.544 2.473s-.125-.473-.637-1.959a122.89 122.89 0 0 0-.336-.963 11.157 11.157 0 0 0-.214-.53c-.91-2.113-3.423-6.572-4.53-8.513a212.622 212.622 0 0 0-2.482 7.765c3.194 5.843 5.14 15.857 5.14 15.857s-.168-.649-.971-2.914c-.713-2.003-4.261-8.22-5.102-9.674-1.438 5.308-2.01 8.892-1.494 9.765 1 1.69 1.953 4.608 2.79 7.835 1.89 7.268 3.204 16.117 3.204 16.117s.042.586.113 1.489a148.078 148.078 0 0 0 .368 18.152c.626 7.573 1.805 14.078 3.307 17.559l1.02-.556c-2.206-6.859-3.102-15.848-2.71-26.214.594-15.845 4.24-34.954 10.978-54.87 11.382-30.065 27.175-54.188 41.629-65.708-13.174 11.898-31.004 50.41-36.342 64.67-5.976 15.97-10.211 30.957-12.763 45.315 4.403-13.46 18.642-19.247 18.642-19.247s6.984-8.613 15.145-20.918c-4.889 1.115-12.916 3.024-15.605 4.154-3.966 1.664-5.035 2.231-5.035 2.231s12.848-7.823 23.87-11.366c15.159-23.875 31.674-57.792 15.043-72.629"/>
  </g>
</svg>